<svg width="19" height="19" viewBox="0 0 19 19" fill="none" xmlns="http://www.w3.org/2000/svg">
<path fill-rule="evenodd" clip-rule="evenodd" d="M8.91594 18.6594C9.36822 19.1135 10.1015 19.1135 10.5538 18.6594L18.6535 10.5252C18.6904 10.4889 18.7248 10.45 18.7566 10.4089L18.757 10.4085C18.9002 10.2236 18.98 10.0053 18.9966 9.78307C19.0017 9.71549 19.0009 9.64755 18.9942 9.58009C18.9861 9.49806 18.9696 9.41853 18.9454 9.3424C18.8911 9.17081 18.7962 9.00936 18.6607 8.87326L10.5538 0.73195L10.4447 0.6352C9.99036 0.280442 9.33343 0.312692 8.91594 0.73195L8.8196 0.841518C8.46634 1.29777 8.49846 1.95748 8.91594 2.37674L15.0451 8.53271L1.62793 8.53271L1.49287 8.54053C0.916886 8.60772 0.469804 9.0993 0.469804 9.69575C0.469804 10.3381 0.988314 10.8588 1.62793 10.8588L15.0449 10.8588L8.91594 17.0146L8.8196 17.1241C8.46634 17.5804 8.49846 18.2401 8.91594 18.6594Z" fill="white"/>
</svg>
