<svg width="24" height="24" viewBox="0 0 24 24" fill="none" xmlns="http://www.w3.org/2000/svg">
<path d="M11 15.0007V18.0007C11 18.5537 10.552 19.0007 10 19.0007C9.448 19.0007 9 18.5537 9 18.0007V15.0007C9 14.4477 9.448 14.0007 10 14.0007C10.552 14.0007 11 14.4477 11 15.0007ZM14 14.0007C13.448 14.0007 13 14.4477 13 15.0007V18.0007C13 18.5537 13.448 19.0007 14 19.0007C14.552 19.0007 15 18.5537 15 18.0007V15.0007C15 14.4477 14.552 14.0007 14 14.0007ZM20.429 12.6217L19.678 18.5067C19.424 20.4977 17.718 21.9997 15.71 21.9997H8.31201C6.31101 21.9997 4.60601 20.5038 4.34601 18.5198L3.573 12.6227C2.641 12.1127 2 11.1357 2 10.0007C2 8.34671 3.346 7.00072 5 7.00072H6.43399L9.14301 2.4857C9.42701 2.0117 10.04 1.85868 10.515 2.14268C10.989 2.42668 11.142 3.04075 10.858 3.51475L8.767 6.99974H15.235L13.144 3.51475C12.86 3.04075 13.013 2.42668 13.487 2.14268C13.961 1.85868 14.575 2.0117 14.859 2.4857L17.568 7.00072H19C20.654 7.00072 22 8.34671 22 10.0007C22 11.1347 21.36 12.1117 20.429 12.6217ZM4 10.0007C4 10.5527 4.449 11.0007 5 11.0007H19C19.551 11.0007 20 10.5527 20 10.0007C20 9.44872 19.551 9.00072 19 9.00072H5C4.449 9.00072 4 9.44872 4 10.0007ZM18.364 13.0007H5.64001L6.32999 18.2607C6.45899 19.2527 7.31201 20.0007 8.31201 20.0007H15.71C16.714 20.0007 17.567 19.2497 17.693 18.2547L18.364 13.0007Z" fill="white"/>
</svg>
