<svg width="29" height="30" viewBox="0 0 29 30" fill="none" xmlns="http://www.w3.org/2000/svg">
<path d="M10.0005 13.4995C10.0005 10.7425 12.2435 8.49951 15.0005 8.49951C17.7575 8.49951 20.0005 10.7425 20.0005 13.4995C20.0005 16.2565 17.7575 18.4995 15.0005 18.4995C12.2435 18.4995 10.0005 16.2565 10.0005 13.4995ZM19.1175 19.5706C18.5585 19.4286 17.9505 19.5086 17.4475 19.7886C15.9295 20.6326 14.0715 20.6326 12.5535 19.7886C12.0515 19.5096 11.4425 19.4306 10.8835 19.5706C8.89148 20.0736 7.50049 21.8816 7.50049 23.9666V24.9775C7.50049 25.6155 7.67047 26.2394 7.99347 26.7834C8.25647 27.2254 8.7495 27.5005 9.2785 27.5005H20.7215C21.2505 27.5005 21.7435 27.2265 22.0065 26.7825C22.3295 26.2395 22.4995 25.6155 22.4995 24.9775V23.9666C22.5005 21.8816 21.1095 20.0736 19.1175 19.5706Z" fill="#FE5200"/>
<path fill-rule="evenodd" clip-rule="evenodd" d="M18.6344 2.08008C18.8164 2.06687 18.9905 2.06431 19.1547 2.08264C20.7987 2.26616 21.9869 3.75294 21.8034 5.39694C21.678 6.51975 20.9313 7.47164 19.881 7.8684L19.4231 11.9698C19.3551 12.5796 18.8036 13.0203 18.1938 12.9522L11.7332 12.231C11.4376 12.198 11.1727 12.0519 10.987 11.8192C10.8015 11.5868 10.7177 11.296 10.7509 11.0004L11.2135 6.90487C10.2726 6.28718 9.7517 5.19218 9.87745 4.06566C10.061 2.42166 11.5477 1.23349 13.1918 1.41698C13.356 1.43531 13.5252 1.47623 13.6998 1.52921C14.3744 0.899983 15.3076 0.555501 16.2943 0.665641C17.2809 0.77578 18.1151 1.31756 18.6344 2.08008ZM18.2543 12.4101C18.5651 12.4448 18.8463 12.22 18.881 11.9093L18.9996 10.8468L11.4129 9.99987L11.2929 11.0614C11.2758 11.2123 11.3188 11.3604 11.4133 11.479C11.5081 11.5975 11.6431 11.6721 11.7937 11.6889L18.2543 12.4101ZM19.5538 7.40464C19.5388 7.40886 19.5246 7.41424 19.511 7.42103C19.4744 7.43839 19.4433 7.46333 19.4187 7.49327C19.394 7.52293 19.3756 7.5584 19.3653 7.59744C19.3612 7.61227 19.3588 7.62728 19.3573 7.64265L19.0601 10.3046L11.4741 9.45782L11.7743 6.7999C11.7762 6.78512 11.7771 6.76993 11.7766 6.75514C11.7754 6.71345 11.7646 6.67365 11.7463 6.63811C11.7291 6.60483 11.7051 6.57483 11.6746 6.55051C11.662 6.54054 11.6486 6.53153 11.6344 6.52377C10.7882 6.03543 10.3114 5.09514 10.4196 4.12611C10.5697 2.78094 11.7861 1.80887 13.1313 1.95902C13.171 1.96346 13.212 1.97172 13.253 1.97996L13.2926 1.98781C12.9652 2.4338 12.7443 2.96675 12.6787 3.55503C12.6619 3.70485 12.7696 3.83961 12.9195 3.85634C13.0693 3.87306 13.204 3.76536 13.2208 3.61554C13.3876 2.12108 14.7393 1.04084 16.2338 1.20766C17.7282 1.37449 18.8084 2.72621 18.6416 4.22067C18.6249 4.37049 18.7326 4.50526 18.8824 4.52198C19.0322 4.5387 19.167 4.431 19.1837 4.28118C19.2494 3.69291 19.1515 3.1244 18.9305 2.61717L18.9709 2.61824C19.0126 2.61923 19.0545 2.62023 19.0942 2.62466C20.4394 2.77482 21.4115 3.99122 21.2613 5.33637C21.1535 6.30196 20.4836 7.11314 19.5538 7.40464ZM12.7076 5.75361C12.8574 5.77033 12.9651 5.9051 12.9484 6.05492C12.9046 6.44718 13.2867 7.20646 13.5378 7.59304C13.6196 7.71956 13.5839 7.88841 13.4576 7.97053C13.4024 8.00618 13.3393 8.01951 13.279 8.01277C13.2006 8.00403 13.1266 7.96147 13.0801 7.89035C13.0029 7.77104 12.3269 6.70615 12.4063 5.9944C12.423 5.84458 12.5578 5.73688 12.7076 5.75361ZM18.3693 6.66004C18.386 6.51023 18.5208 6.40253 18.6706 6.41925C18.8204 6.43597 18.9281 6.57074 18.9114 6.72056C18.8319 7.43233 17.9378 8.32192 17.8361 8.42125C17.7751 8.48038 17.6938 8.50559 17.6154 8.49685C17.5548 8.49008 17.4962 8.46316 17.4505 8.41626C17.3454 8.30833 17.3475 8.13571 17.4552 8.03062C17.7855 7.70811 18.3256 7.05098 18.3693 6.66004ZM15.6891 6.08643C15.5393 6.0697 15.4045 6.1774 15.3878 6.32722L15.2063 7.95349C15.1895 8.10331 15.2972 8.23807 15.4471 8.2548C15.5969 8.27152 15.7316 8.16382 15.7484 8.014L15.9299 6.38774C15.9466 6.23792 15.8389 6.10315 15.6891 6.08643Z" fill="#FE5200"/>
</svg>
