<svg width="35" height="35" viewBox="0 0 35 35" fill="none" xmlns="http://www.w3.org/2000/svg">
<path d="M23.9872 13.4873L19.9745 17.5L23.9872 21.5127C24.6714 22.1969 24.6714 23.3031 23.9872 23.9873C23.6459 24.3286 23.198 24.5 22.75 24.5C22.302 24.5 21.8541 24.3286 21.5128 23.9873L17.5 19.9744L13.4872 23.9873C13.1459 24.3286 12.698 24.5 12.25 24.5C11.802 24.5 11.3541 24.3286 11.0128 23.9873C10.3286 23.3031 10.3286 22.1969 11.0128 21.5127L15.0255 17.5L11.0128 13.4873C10.3286 12.8031 10.3286 11.6969 11.0128 11.0127C11.6971 10.3284 12.8029 10.3284 13.4872 11.0127L17.5 15.0256L21.5128 11.0127C22.1971 10.3284 23.3029 10.3284 23.9872 11.0127C24.6714 11.6969 24.6714 12.8031 23.9872 13.4873ZM35 12.25V22.75C35 29.5032 29.505 35 22.75 35H12.25C5.495 35 0 29.5032 0 22.75V12.25C0 5.49675 5.495 0 12.25 0H22.75C29.505 0 35 5.49675 35 12.25ZM31.5 12.25C31.5 7.42525 27.5747 3.5 22.75 3.5H12.25C7.42525 3.5 3.5 7.42525 3.5 12.25V22.75C3.5 27.5747 7.42525 31.5 12.25 31.5H22.75C27.5747 31.5 31.5 27.5747 31.5 22.75V12.25Z" fill="#FE5200"/>
</svg>
