<svg width="13" height="13" viewBox="0 0 13 13" fill="none" xmlns="http://www.w3.org/2000/svg">
<path d="M6.5 0C6.91668 0 7.2601 0.313658 7.30703 0.717745L7.3125 0.8125V5.6875H12.1875C12.6362 5.6875 13 6.05127 13 6.5C13 6.91668 12.6863 7.2601 12.2823 7.30703L12.1875 7.3125H7.3125V12.1875C7.3125 12.6362 6.94873 13 6.5 13C6.08332 13 5.7399 12.6863 5.69297 12.2823L5.6875 12.1875V7.3125H0.8125C0.363769 7.3125 0 6.94873 0 6.5C0 6.08332 0.313658 5.7399 0.717745 5.69297L0.8125 5.6875H5.6875V0.8125C5.6875 0.363769 6.05127 0 6.5 0Z" fill="#A7A2A3"/>
</svg>
