<svg width="17" height="17" viewBox="0 0 17 17" fill="none" xmlns="http://www.w3.org/2000/svg">
<path d="M8.49999 15.3354C8.28041 15.3354 8.06791 15.3071 7.89082 15.2433C5.18499 14.3154 0.885406 11.0216 0.885406 6.15538C0.885406 3.67622 2.88999 1.66455 5.35499 1.66455C6.55207 1.66455 7.67124 2.13205 8.49999 2.96788C9.32874 2.13205 10.4479 1.66455 11.645 1.66455C14.11 1.66455 16.1146 3.6833 16.1146 6.15538C16.1146 11.0287 11.815 14.3154 9.10916 15.2433C8.93207 15.3071 8.71957 15.3354 8.49999 15.3354ZM5.35499 2.72705C3.47791 2.72705 1.94791 4.26413 1.94791 6.15538C1.94791 10.9933 6.60166 13.685 8.23791 14.2446C8.36541 14.2871 8.64166 14.2871 8.76916 14.2446C10.3983 13.685 15.0592 11.0004 15.0592 6.15538C15.0592 4.26413 13.5292 2.72705 11.6521 2.72705C10.5754 2.72705 9.57666 3.22997 8.93207 4.10122C8.73374 4.37038 8.28041 4.37038 8.08207 4.10122C7.42332 3.22288 6.43166 2.72705 5.35499 2.72705Z" fill="#41416E"/>
</svg>
