<svg width="20" height="20" viewBox="0 0 20 20" fill="none" xmlns="http://www.w3.org/2000/svg">
<path d="M11.6667 8.33337C11.6667 9.25004 10.9167 10 10 10C9.08333 10 8.33333 9.25004 8.33333 8.33337C8.33333 7.41671 9.08333 6.66671 10 6.66671C10.9167 6.66671 11.6667 7.41671 11.6667 8.33337ZM16.25 8.33337C16.25 13.4 12.3583 16.575 10.6917 17.7C10.4833 17.85 10.2417 17.9167 10 17.9167C9.75833 17.9167 9.51667 17.85 9.3 17.7C7.63334 16.575 3.75 13.4084 3.75 8.33337C3.75 4.76671 6.43333 2.08337 10 2.08337C13.5583 2.08337 16.25 4.76671 16.25 8.33337ZM13.3333 8.33337C13.3333 6.49171 11.8417 5.00004 10 5.00004C8.15833 5.00004 6.66667 6.49171 6.66667 8.33337C6.66667 10.175 8.15833 11.6667 10 11.6667C11.8417 11.6667 13.3333 10.175 13.3333 8.33337Z" fill="#FE5200"/>
</svg>
