<svg width="19" height="22" viewBox="0 0 19 22" fill="none" xmlns="http://www.w3.org/2000/svg">
<path d="M5.84217 4.94222C5.76675 4.76752 5.6416 4.61814 5.48189 4.51217C5.32218 4.4062 5.13476 4.34818 4.94231 4.34514H1.75695C1.67328 4.34045 1.58971 4.35588 1.51342 4.39009C1.43713 4.4243 1.3704 4.47628 1.31897 4.54155C1.2764 4.61585 1.25403 4.69975 1.25403 4.78509C1.25403 4.87044 1.2764 4.95434 1.31897 5.02864L3.49297 8.7447L0.0687145 14.7077C0.0237593 14.7812 0 14.8654 0 14.9512C0 15.0371 0.0237593 15.1213 0.0687145 15.1948C0.111441 15.2647 0.172412 15.3219 0.245257 15.3606C0.318101 15.3993 0.400144 15.418 0.482811 15.4147H3.66817C3.85906 15.4089 4.04397 15.3476 4.19977 15.2386C4.35557 15.1296 4.47535 14.9777 4.54414 14.8019L8.01618 8.7447L5.84217 4.94222ZM18.9101 0.691935C18.9512 0.617168 18.9728 0.533452 18.9728 0.448388C18.9728 0.363324 18.9512 0.279607 18.9101 0.204841C18.863 0.138336 18.7996 0.0847094 18.7258 0.0489833C18.652 0.0132572 18.5702 -0.00339878 18.488 0.000575657H15.239C15.0509 0.00581487 14.8688 0.0661396 14.7156 0.173869C14.5624 0.281598 14.4452 0.431857 14.3789 0.605515C14.3789 0.605515 7.45078 12.7279 7.21187 13.1207L11.7829 21.3934C11.8574 21.5678 11.981 21.7175 12.139 21.8247C12.2971 21.9319 12.483 21.9922 12.6748 21.9984H15.8601C15.9438 22.0053 16.0277 21.99 16.1034 21.9541C16.179 21.9182 16.2435 21.8629 16.2901 21.7941C16.3335 21.7201 16.3563 21.6361 16.3563 21.5506C16.3563 21.465 16.3335 21.3811 16.2901 21.307L11.759 13.1364L18.9101 0.691935Z" fill="#C60000"/>
</svg>
