<svg width="12" height="12" viewBox="0 0 12 12" fill="none" xmlns="http://www.w3.org/2000/svg">
<path d="M11.6429 5.75357L9.67611 7.74847L10.1403 10.5626C10.2161 11.0219 10.0405 11.48 9.68179 11.7573C9.3161 12.0393 8.8386 12.0781 8.43564 11.8587L6.00023 10.5273L3.56481 11.8587C3.39175 11.9534 3.20417 12 3.01785 12C2.77153 12 2.52709 11.918 2.31866 11.7573C1.96055 11.48 1.78435 11.0219 1.86014 10.5626L2.32435 7.74847L0.357577 5.75357C0.0354642 5.42688 -0.0801303 4.94628 0.0562939 4.49959C0.193981 4.04757 0.55904 3.72559 1.00873 3.65759L3.73028 3.24611L4.94673 0.682654C5.14631 0.261298 5.55053 0 6.00023 0C6.44992 0 6.85414 0.261965 7.05372 0.682654L8.27017 3.24611L10.9917 3.65759C11.4408 3.72559 11.8058 4.04757 11.9435 4.49959C12.0799 4.94628 11.965 5.42688 11.6429 5.75357Z" fill="#FE5200"/>
</svg>
