<svg width="45" height="44" viewBox="0 0 45 44" fill="none" xmlns="http://www.w3.org/2000/svg">
<path d="M27.8144 4.54785H16.6886C10.0503 4.54785 4.63574 9.85977 4.63574 16.3723V27.2872C4.63574 33.7998 10.0503 39.1117 16.6886 39.1117H27.8144C34.4527 39.1117 39.8672 33.7998 39.8672 27.2872V16.3723C39.8672 9.85977 34.4527 4.54785 27.8144 4.54785ZM29.6687 23.6489H24.1058V29.1064C24.1058 30.1069 23.2714 30.9255 22.2515 30.9255C21.2316 30.9255 20.3972 30.1069 20.3972 29.1064V23.6489H14.8343C13.8145 23.6489 12.98 22.8303 12.98 21.8298C12.98 20.8292 13.8145 20.0106 14.8343 20.0106H20.3972V14.5532C20.3972 13.5526 21.2316 12.734 22.2515 12.734C23.2714 12.734 24.1058 13.5526 24.1058 14.5532V20.0106H29.6687C30.6885 20.0106 31.5229 20.8292 31.5229 21.8298C31.5229 22.8303 30.6885 23.6489 29.6687 23.6489Z" fill="white"/>
</svg>
