<svg width="25" height="24" viewBox="0 0 25 24" fill="none" xmlns="http://www.w3.org/2000/svg">
<path d="M15.7582 2.5H9.71042C6.10193 2.5 3.15869 5.42 3.15869 9V15C3.15869 18.58 6.10193 21.5 9.71042 21.5H15.7582C19.3667 21.5 22.3099 18.58 22.3099 15V9C22.3099 5.42 19.3667 2.5 15.7582 2.5ZM16.4738 14.29C16.8669 14.68 16.8669 15.32 16.4738 15.71C16.2722 15.9 16.0202 16 15.7582 16C15.4961 16 15.2441 15.9 15.0425 15.71L12.7343 13.4199L10.4261 15.71C10.2245 15.9 9.97249 16 9.71042 16C9.44835 16 9.19634 15.9 8.99474 15.71C8.60164 15.32 8.60164 14.68 8.99474 14.29L11.303 12L8.99474 9.70996C8.60164 9.31996 8.60164 8.68004 8.99474 8.29004C9.38785 7.90004 10.033 7.90004 10.4261 8.29004L12.7343 10.5801L15.0425 8.29004C15.4356 7.90004 16.0807 7.90004 16.4738 8.29004C16.8669 8.68004 16.8669 9.31996 16.4738 9.70996L14.1656 12L16.4738 14.29Z" fill="#FF5D5D"/>
</svg>
