<svg width="37" height="38" viewBox="0 0 37 38" fill="none" xmlns="http://www.w3.org/2000/svg">
<path d="M32.8866 9.81248C31.6396 7.63019 30.1633 5.58543 28.467 3.72407C26.8624 1.96356 25.1064 0.44604 22.6766 0.0930219C20.3659 -0.246242 18.0369 0.368101 16.0334 1.51885C14.0162 2.67876 12.4574 4.32924 10.8436 5.97054C10.0229 6.80495 9.15644 7.49265 8.02403 7.84567C7.01082 8.16201 5.94718 8.30413 4.95232 8.69841C4.04455 9.0606 3.02218 9.66577 2.73334 10.6698C2.4766 11.5592 2.92131 12.3753 3.63652 12.8888C4.46634 13.4802 5.4658 13.6636 6.4515 13.8103C7.7627 14.0074 9.07391 14.1771 10.3943 14.3146C13.113 14.6034 15.8454 14.7593 18.5779 14.7868C21.6496 14.8189 24.7213 14.6814 27.7793 14.3834C30.1496 14.1496 33.07 13.4756 33.4092 10.6561C33.4963 9.9271 32.3502 9.93168 32.2631 10.6561C31.9834 12.9667 28.8567 13.1455 27.1099 13.3014C24.7213 13.5169 22.3281 13.6315 19.9304 13.6452C17.4959 13.659 15.0615 13.5719 12.6362 13.3793C11.4396 13.2831 10.2476 13.1639 9.06016 13.0217C7.93234 12.8842 6.77242 12.7787 5.66294 12.522C5.05318 12.3799 4.00788 12.0773 3.82908 11.3713C3.5815 10.4039 5.15404 9.81248 5.83715 9.60617C6.74033 9.32651 7.68477 9.18438 8.58336 8.87263C9.51863 8.54712 10.3255 8.02905 11.0591 7.36428C12.5674 5.99805 13.819 4.41635 15.497 3.22892C17.175 2.0415 19.1189 1.19334 21.2049 1.14749C22.3602 1.12457 23.5339 1.33546 24.5654 1.87645C25.6933 2.46787 26.5964 3.38939 27.4538 4.3109C29.1684 6.15851 30.6493 8.20327 31.9009 10.3901C32.2631 11.0274 33.2534 10.4543 32.8866 9.81248Z" fill="white"/>
<path d="M1.28001 13.8149C1.63761 14.6493 2.47201 15.0619 3.2835 15.3691C4.40674 15.7908 5.57582 16.098 6.74949 16.341C9.11059 16.827 11.5313 17.0746 13.9291 17.2763C18.8805 17.6935 23.8961 17.6981 28.8017 16.8132C30.9198 16.4327 34.1795 15.9972 34.4041 13.2922C34.4637 12.5587 33.3175 12.5633 33.2579 13.2922C33.1754 14.2963 32.153 14.8235 31.3003 15.0848C30.2825 15.392 29.2189 15.5845 28.1736 15.7633C25.9638 16.1439 23.7219 16.3318 21.4846 16.3869C17.1016 16.4969 12.6316 16.1897 8.30369 15.4653C7.15294 15.2728 6.01136 15.0298 4.89271 14.6951C4.00787 14.4338 2.67374 14.1771 2.27029 13.2326C1.98146 12.5633 0.991172 13.1455 1.28001 13.8149Z" fill="white"/>
<path d="M2.1007 11.1878C1.78894 11.2657 1.46802 11.3437 1.18377 11.4996C0.913273 11.6509 0.629025 11.9305 0.661117 12.2652C0.674871 12.4119 0.784903 12.5586 0.945365 12.5494C1.08749 12.5449 1.24795 12.4211 1.22961 12.2652C1.22961 12.2514 1.22961 12.2377 1.22961 12.2239C1.22961 12.2148 1.2342 12.1735 1.22961 12.2239C1.22044 12.2835 1.24337 12.1964 1.24337 12.1873C1.24795 12.2194 1.22044 12.2423 1.23878 12.2056C1.24337 12.1918 1.25254 12.1827 1.26171 12.1689C1.26629 12.1597 1.27546 12.1506 1.28004 12.1414C1.27088 12.1643 1.24337 12.1827 1.27546 12.1506C1.2938 12.1277 1.31214 12.1093 1.33506 12.091C1.34881 12.0818 1.35798 12.0681 1.37174 12.0589C1.39925 12.036 1.33048 12.0864 1.36257 12.0681C1.41758 12.0314 1.4726 11.9993 1.5322 11.9672C1.55971 11.9534 1.58722 11.9397 1.61931 11.9259C1.65599 11.9076 1.57346 11.9443 1.61014 11.9305C1.62848 11.9259 1.64223 11.9168 1.66057 11.9122C1.72017 11.8893 1.78436 11.8663 1.84854 11.848C1.98608 11.8067 2.12362 11.7746 2.26116 11.738C2.40787 11.7013 2.50873 11.5317 2.46288 11.3849C2.40328 11.2382 2.25658 11.1465 2.1007 11.1878Z" fill="white"/>
<path d="M34.6563 12.3891C35.2156 12.5633 35.3807 13.2235 35.4724 13.7369C35.6145 14.5393 35.6007 15.3828 35.6374 16.1943C35.7245 18.0511 35.7887 19.9079 35.8208 21.7693C35.8529 23.6306 35.8575 25.4874 35.8391 27.3442C35.83 28.2565 35.8116 29.1643 35.7841 30.0766C35.7658 30.8102 35.8345 31.7225 35.3256 32.314C34.8488 32.8687 35.6557 33.6848 36.1371 33.1254C36.6965 32.4744 36.8569 31.7088 36.9074 30.8698C36.967 29.852 36.967 28.825 36.9807 27.8027C37.0128 25.6387 37.0036 23.4793 36.9624 21.3154C36.9165 19.1514 36.8386 16.9921 36.7194 14.8327C36.646 13.4802 36.4856 11.761 34.968 11.2842C34.2574 11.0641 33.9548 12.169 34.6563 12.3891Z" fill="white"/>
<path d="M0.184302 15.3278C0.051347 18.2849 -0.00825373 21.242 0.000915573 24.2037C0.00550022 25.6432 0.0284237 27.0874 0.0696856 28.527C0.106363 29.8428 0.207225 31.1311 0.771137 32.3414C1.08289 33.0108 2.07318 32.4285 1.76142 31.7638C1.21126 30.5809 1.23419 29.2376 1.20209 27.9585C1.17 26.5556 1.15166 25.1527 1.14708 23.7498C1.14249 20.944 1.20668 18.1336 1.33046 15.3324C1.36256 14.5942 0.216394 14.5942 0.184302 15.3278Z" fill="white"/>
<path d="M2.12822 34.1296C2.79299 34.8631 3.687 35.2665 4.6131 35.5646C5.71341 35.9176 6.84582 36.1926 7.97365 36.454C10.3302 36.995 12.7279 37.3755 15.1349 37.6047C19.6003 38.0311 24.3271 38.0678 28.7284 37.0958C31.0069 36.5915 33.1709 35.6975 34.9956 34.2258C35.5687 33.7628 34.7526 32.9559 34.1841 33.4144C31.0711 35.9267 26.8578 36.4494 22.993 36.6419C18.4587 36.8666 13.9016 36.5227 9.45449 35.6104C8.23956 35.3628 7.03838 35.0694 5.84179 34.7393C4.7919 34.4459 3.69158 34.1662 2.93512 33.3272C2.44456 32.7679 1.63308 33.5794 2.12822 34.1296Z" fill="white"/>
<path d="M30.7593 11.0412C31.4974 11.0412 31.4974 9.89503 30.7593 9.89503C30.0212 9.89503 30.0212 11.0412 30.7593 11.0412Z" fill="white"/>
<path d="M3.49903 32.809C4.23716 32.809 4.23716 31.6628 3.49903 31.6628C2.7609 31.6628 2.7609 32.809 3.49903 32.809Z" fill="white"/>
<path d="M29.7782 22.0351C27.5226 22.3744 25.2532 22.5853 22.9792 22.6678C22.4749 22.6862 21.9568 22.6632 21.4525 22.7091C21.1499 22.7366 20.8978 22.865 20.7694 23.1492C20.6227 23.4701 20.6777 23.8644 20.6869 24.2037C20.7006 24.7859 20.7144 25.3728 20.7281 25.955C20.7419 26.5052 20.6823 27.1195 20.7786 27.6605C20.829 27.9539 20.9849 28.1602 21.2783 28.2565C21.6817 28.3849 22.186 28.339 22.6032 28.3528C23.1672 28.3711 23.7357 28.3803 24.3041 28.3803C26.4819 28.3757 28.6825 28.2336 30.8373 27.8989C31.7725 27.7522 32.1485 27.2387 32.2173 26.3126C32.3044 25.0794 32.1852 23.8323 31.9513 22.622C31.8826 22.2598 31.3278 22.4157 31.3966 22.7733C31.6212 23.924 31.745 25.1344 31.6442 26.308C31.6213 26.606 31.6075 26.9636 31.3278 27.1608C31.149 27.2892 30.8969 27.3075 30.686 27.3396C30.0808 27.4359 29.4711 27.5001 28.8659 27.5642C26.6469 27.7889 24.4142 27.8531 22.186 27.7614C21.8926 27.7476 21.5167 27.8164 21.347 27.4863C21.2508 27.3029 21.3287 26.8215 21.3241 26.6106C21.3104 26.0284 21.2966 25.4415 21.2829 24.8593C21.2737 24.5659 21.2691 24.277 21.2599 23.9836C21.2508 23.6306 21.1591 23.3968 21.6038 23.2776C21.8468 23.2134 22.1998 23.2684 22.452 23.2593C22.7362 23.2501 23.0204 23.2409 23.3001 23.2317C25.5237 23.14 27.7381 22.92 29.9341 22.5899C30.2917 22.5349 30.1404 21.9801 29.7782 22.0351Z" fill="white"/>
</svg>
