<svg width="24" height="24" viewBox="0 0 24 24" fill="none" xmlns="http://www.w3.org/2000/svg">
<path d="M11 15.0012V18.0012C11 18.5542 10.552 19.0012 10 19.0012C9.448 19.0012 9 18.5542 9 18.0012V15.0012C9 14.4482 9.448 14.0012 10 14.0012C10.552 14.0012 11 14.4482 11 15.0012ZM14 14.0012C13.448 14.0012 13 14.4482 13 15.0012V18.0012C13 18.5542 13.448 19.0012 14 19.0012C14.552 19.0012 15 18.5542 15 18.0012V15.0012C15 14.4482 14.552 14.0012 14 14.0012ZM20.429 12.6222L19.678 18.5072C19.424 20.4982 17.718 22.0002 15.71 22.0002H8.31201C6.31101 22.0002 4.60601 20.5042 4.34601 18.5202L3.573 12.6232C2.641 12.1132 2 11.1362 2 10.0012C2 8.3472 3.346 7.0012 5 7.0012H6.43399L9.14301 2.48619C9.42701 2.01219 10.04 1.85917 10.515 2.14317C10.989 2.42717 11.142 3.04124 10.858 3.51524L8.767 7.00023H15.235L13.144 3.51524C12.86 3.04124 13.013 2.42717 13.487 2.14317C13.961 1.85917 14.575 2.01219 14.859 2.48619L17.568 7.0012H19C20.654 7.0012 22 8.3472 22 10.0012C22 11.1352 21.36 12.1122 20.429 12.6222ZM4 10.0012C4 10.5532 4.449 11.0012 5 11.0012H19C19.551 11.0012 20 10.5532 20 10.0012C20 9.4492 19.551 9.0012 19 9.0012H5C4.449 9.0012 4 9.4492 4 10.0012ZM18.364 13.0012H5.64001L6.32999 18.2612C6.45899 19.2532 7.31201 20.0012 8.31201 20.0012H15.71C16.714 20.0012 17.567 19.2502 17.693 18.2552L18.364 13.0012Z" fill="#FE5200"/>
</svg>
