<svg width="20" height="20" viewBox="0 0 20 20" fill="none" xmlns="http://www.w3.org/2000/svg">
<path d="M7.08334 2.91675C5.76667 2.91675 4.66419 3.79925 4.30253 5.00008H2.50001C2.04001 5.00008 1.66667 5.37258 1.66667 5.83341C1.66667 6.29425 2.04001 6.66675 2.50001 6.66675H4.30253C4.66419 7.86758 5.76667 8.75008 7.08334 8.75008C8.69167 8.75008 10 7.44175 10 5.83341C10 4.22508 8.69167 2.91675 7.08334 2.91675ZM7.08334 7.08342C6.39417 7.08342 5.83334 6.52258 5.83334 5.83341C5.83334 5.14425 6.39417 4.58341 7.08334 4.58341C7.77251 4.58341 8.33334 5.14425 8.33334 5.83341C8.33334 6.52258 7.77251 7.08342 7.08334 7.08342ZM11.6667 5.83341C11.6667 5.37258 12.04 5.00008 12.5 5.00008H17.5C17.96 5.00008 18.3333 5.37258 18.3333 5.83341C18.3333 6.29425 17.96 6.66675 17.5 6.66675H12.5C12.04 6.66675 11.6667 6.29425 11.6667 5.83341ZM17.5 13.3334H15.6975C15.3358 12.1326 14.2333 11.2501 12.9167 11.2501C11.3083 11.2501 10 12.5584 10 14.1667C10 15.7751 11.3083 17.0834 12.9167 17.0834C14.2333 17.0834 15.3358 16.2009 15.6975 15.0001H17.5C17.96 15.0001 18.3333 14.6276 18.3333 14.1667C18.3333 13.7059 17.96 13.3334 17.5 13.3334ZM12.9167 15.4167C12.2275 15.4167 11.6667 14.8559 11.6667 14.1667C11.6667 13.4776 12.2275 12.9167 12.9167 12.9167C13.6058 12.9167 14.1667 13.4776 14.1667 14.1667C14.1667 14.8559 13.6058 15.4167 12.9167 15.4167ZM8.33334 14.1667C8.33334 14.6276 7.96 15.0001 7.5 15.0001H2.50001C2.04001 15.0001 1.66667 14.6276 1.66667 14.1667C1.66667 13.7059 2.04001 13.3334 2.50001 13.3334H7.5C7.96 13.3334 8.33334 13.7059 8.33334 14.1667Z" fill="#BDBDBD"/>
</svg>
