<svg width="24" height="24" viewBox="0 0 24 24" fill="none" xmlns="http://www.w3.org/2000/svg">
<path d="M8.5 3.5C6.92 3.5 5.59702 4.559 5.16302 6H3C2.448 6 2 6.447 2 7C2 7.553 2.448 8 3 8H5.16302C5.59702 9.441 6.92 10.5 8.5 10.5C10.43 10.5 12 8.93 12 7C12 5.07 10.43 3.5 8.5 3.5ZM8.5 8.5C7.673 8.5 7 7.827 7 7C7 6.173 7.673 5.5 8.5 5.5C9.327 5.5 10 6.173 10 7C10 7.827 9.327 8.5 8.5 8.5ZM14 7C14 6.447 14.448 6 15 6H21C21.552 6 22 6.447 22 7C22 7.553 21.552 8 21 8H15C14.448 8 14 7.553 14 7ZM21 16H18.837C18.403 14.559 17.08 13.5 15.5 13.5C13.57 13.5 12 15.07 12 17C12 18.93 13.57 20.5 15.5 20.5C17.08 20.5 18.403 19.441 18.837 18H21C21.552 18 22 17.553 22 17C22 16.447 21.552 16 21 16ZM15.5 18.5C14.673 18.5 14 17.827 14 17C14 16.173 14.673 15.5 15.5 15.5C16.327 15.5 17 16.173 17 17C17 17.827 16.327 18.5 15.5 18.5ZM10 17C10 17.553 9.552 18 9 18H3C2.448 18 2 17.553 2 17C2 16.447 2.448 16 3 16H9C9.552 16 10 16.447 10 17Z" fill="#FE5200"/>
</svg>
