<svg width="17" height="15" viewBox="0 0 17 15" fill="none" xmlns="http://www.w3.org/2000/svg">
<path d="M16.1675 7.19157L13.5725 9.68506L14.185 13.2025C14.285 13.7767 14.0533 14.3492 13.58 14.6958C13.0975 15.0483 12.4675 15.0968 11.9358 14.8226L8.72247 13.1584L5.50915 14.8226C5.28082 14.9409 5.03332 14.9992 4.78749 14.9992C4.46249 14.9992 4.13997 14.8967 3.86496 14.6958C3.39246 14.3492 3.15998 13.7767 3.25998 13.2025L3.87247 9.68506L1.27748 7.19157C0.852481 6.78324 0.699964 6.18252 0.879964 5.62419C1.06163 5.05919 1.54329 4.65674 2.13663 4.57174L5.72748 4.05741L7.33247 0.853272C7.59581 0.326605 8.12914 0 8.72247 0C9.31581 0 9.84914 0.327438 10.1125 0.853272L11.7175 4.05741L15.3083 4.57174C15.9008 4.65674 16.3825 5.05919 16.5641 5.62419C16.7441 6.18252 16.5925 6.78324 16.1675 7.19157Z" fill="#FE5200"/>
</svg>
