<svg width="10" height="9" viewBox="0 0 10 9" fill="none" xmlns="http://www.w3.org/2000/svg">
<path d="M9.70242 4.31518L8.06345 5.81135L8.45029 7.92194C8.51345 8.26646 8.36714 8.60997 8.06819 8.81798C7.76344 9.0295 7.36553 9.05855 7.02973 8.89404L5.00022 7.89545L2.9707 8.89404C2.82649 8.96504 2.67017 9 2.5149 9C2.30963 9 2.10593 8.93849 1.93224 8.81798C1.63382 8.60997 1.48698 8.26646 1.55014 7.92194L1.93698 5.81135L0.298006 4.31518C0.0295789 4.07016 -0.0667498 3.70971 0.046937 3.3747C0.161677 3.03568 0.465892 2.79419 0.840637 2.74319L3.1086 2.43458L4.1223 0.511991C4.28862 0.195974 4.62547 0 5.00022 0C5.37496 0 5.71181 0.196474 5.87813 0.511991L6.89183 2.43458L9.15979 2.74319C9.53401 2.79419 9.83822 3.03568 9.95296 3.3747C10.0667 3.70971 9.97085 4.07016 9.70242 4.31518Z" fill="white"/>
</svg>
