<svg width="17" height="17" viewBox="0 0 17 17" fill="none" xmlns="http://www.w3.org/2000/svg">
<path d="M12.3321 6.6229L11.8646 6.15542L11.8653 4.44831C12.3505 3.82852 12.5729 2.84113 12.5729 2.125C12.5729 1.83175 12.3349 1.59375 12.0417 1.59375H4.95835C4.6651 1.59375 4.4271 1.83175 4.4271 2.125C4.4271 2.84113 4.64952 3.82925 5.13544 4.44905V6.15468L4.66796 6.62221C3.59908 7.69108 3.01044 9.11271 3.01044 10.625C3.01044 10.766 3.06637 10.9013 3.16625 11.0004C3.26612 11.0996 3.40144 11.1562 3.54169 11.1562H7.96877V14.875C7.96877 15.1682 8.20677 15.4062 8.50002 15.4062C8.79327 15.4062 9.03127 15.1682 9.03127 14.875V11.1562H13.4584C13.7516 11.1562 13.9896 10.9182 13.9896 10.625C13.9896 9.11342 13.401 7.69177 12.3321 6.6229ZM4.10342 10.0938C4.22029 9.06667 4.67787 8.11605 5.41879 7.37442L6.04212 6.75182C6.142 6.65195 6.19794 6.51663 6.19794 6.37638L6.19725 4.25C6.19725 4.10904 6.14126 3.97373 6.04139 3.87456C5.81685 3.65002 5.62205 3.16338 5.53634 2.65763H11.463C11.3766 3.16268 11.1825 3.65074 10.9572 3.87599C10.8573 3.97586 10.8014 4.11113 10.8014 4.25138V6.37638C10.8014 6.51734 10.8573 6.65265 10.9572 6.75182L11.5806 7.37442C12.3222 8.11605 12.7791 9.06736 12.8959 10.0944L4.10342 10.0938Z" fill="#41416E"/>
</svg>
