<svg width="17" height="17" viewBox="0 0 17 17" fill="none" xmlns="http://www.w3.org/2000/svg">
<path d="M14.875 3.71806H12.354C11.9722 3.71806 11.6344 3.47439 11.514 3.11314L11.2901 2.44095C11.1209 1.93378 10.6484 1.59375 10.1143 1.59375H6.88498C6.3509 1.59375 5.87846 1.93377 5.70916 2.44164L5.48535 3.11314C5.36493 3.4751 5.02703 3.71875 4.64524 3.71875H2.125C1.83175 3.71875 1.59375 3.95675 1.59375 4.25C1.59375 4.54325 1.83175 4.78125 2.125 4.78125H3.0444L3.58771 12.9271C3.6805 14.3175 4.8443 15.4062 6.2383 15.4062H10.7624C12.1557 15.4062 13.3202 14.3168 13.413 12.9271L13.9563 4.78125H14.875C15.1682 4.78125 15.4062 4.54325 15.4062 4.25C15.4062 3.95675 15.1682 3.71806 14.875 3.71806ZM6.7171 2.7767C6.74119 2.70445 6.80848 2.65556 6.88498 2.65556H10.1143C10.1908 2.65556 10.2581 2.70446 10.2822 2.77601L10.506 3.4482C10.5371 3.5417 10.5761 3.63166 10.62 3.71737H6.37854C6.42246 3.63095 6.46143 3.54171 6.49259 3.4475L6.7171 2.7767ZM12.3519 12.8556C12.2967 13.69 11.5982 14.3431 10.7617 14.3431H6.2376C5.40177 14.3431 4.70261 13.69 4.64736 12.8556L4.10906 4.78056H4.64524C4.72103 4.78056 4.79542 4.77133 4.86979 4.76283C4.89954 4.76779 4.92647 4.78056 4.95764 4.78056H12.041C12.0721 4.78056 12.099 4.76779 12.1288 4.76283C12.2032 4.77133 12.2768 4.78056 12.3533 4.78056H12.8896L12.3519 12.8556ZM10.4479 7.79097V11.3326C10.4479 11.6259 10.2099 11.8639 9.91667 11.8639C9.62342 11.8639 9.38542 11.6259 9.38542 11.3326V7.79097C9.38542 7.49773 9.62342 7.25972 9.91667 7.25972C10.2099 7.25972 10.4479 7.49773 10.4479 7.79097ZM7.61458 7.79097V11.3326C7.61458 11.6259 7.37658 11.8639 7.08333 11.8639C6.79008 11.8639 6.55208 11.6259 6.55208 11.3326V7.79097C6.55208 7.49773 6.79008 7.25972 7.08333 7.25972C7.37658 7.25972 7.61458 7.49773 7.61458 7.79097Z" fill="#41416E"/>
</svg>
