<svg width="20" height="20" viewBox="0 0 20 20" fill="none" xmlns="http://www.w3.org/2000/svg">
<path d="M5.83373 6.24955C5.83373 3.95205 7.7029 2.08289 10.0004 2.08289C12.2979 2.08289 14.1671 3.95205 14.1671 6.24955C14.1671 8.54705 12.2979 10.4162 10.0004 10.4162C7.7029 10.4162 5.83373 8.54705 5.83373 6.24955ZM13.4312 11.3088C12.9654 11.1904 12.4587 11.2571 12.0396 11.4904C10.7746 12.1938 9.22621 12.1938 7.96121 11.4904C7.54288 11.2579 7.03539 11.1921 6.56956 11.3088C4.90956 11.7279 3.7504 13.2346 3.7504 14.9721V15.8146C3.7504 16.3462 3.89205 16.8662 4.16121 17.3195C4.38038 17.6878 4.79124 17.917 5.23208 17.917H14.7679C15.2087 17.917 15.6195 17.6887 15.8387 17.3187C16.1079 16.8662 16.2496 16.3462 16.2496 15.8146V14.9721C16.2504 13.2346 15.0912 11.7279 13.4312 11.3088Z" fill="#FE5200"/>
</svg>
