<svg width="24" height="24" viewBox="0 0 24 24" fill="none" xmlns="http://www.w3.org/2000/svg">
<path d="M12 13.0001C15.033 13.0001 17.5 10.5321 17.5 7.50012C17.5 4.46812 15.033 2.00012 12 2.00012C8.967 2.00012 6.5 4.46812 6.5 7.50012C6.5 10.5321 8.967 13.0001 12 13.0001ZM12 4.00012C13.93 4.00012 15.5 5.57012 15.5 7.50012C15.5 9.43012 13.93 11.0001 12 11.0001C10.07 11.0001 8.5 9.43012 8.5 7.50012C8.5 5.57012 10.07 4.00012 12 4.00012ZM20 17.9672V18.9781C20 19.9741 19.636 20.9291 18.975 21.6671C18.777 21.8881 18.504 22.0001 18.229 22.0001C17.992 22.0001 17.753 21.9161 17.562 21.7451C17.15 21.3771 17.116 20.7441 17.484 20.3331C17.816 19.9621 17.999 19.4802 17.999 18.9781V17.9672C17.999 16.5682 17.072 15.3581 15.746 15.0251C15.554 14.9771 15.349 15.0011 15.185 15.0951C13.204 16.1971 10.786 16.1911 8.82397 15.1011C8.65097 15.0021 8.447 14.9771 8.255 15.0251C6.926 15.3581 6 16.5682 6 17.9672V18.9781C6 19.4811 6.18301 19.9621 6.51501 20.3331C6.88301 20.7441 6.84801 21.3771 6.43701 21.7451C6.02501 22.1141 5.39302 22.0781 5.02502 21.6671C4.36402 20.9291 4 19.9741 4 18.9781V17.9672C4 15.6502 5.54903 13.6421 7.76703 13.0851C8.45403 12.9101 9.19803 13.0112 9.80603 13.3582C11.155 14.1062 12.836 14.1122 14.204 13.3522C14.803 13.0092 15.547 12.9091 16.235 13.0841C18.451 13.6421 20 15.6492 20 17.9672Z" fill="#A1A1A1"/>
</svg>
